# xmcd CD database file
#
# Track frame offsets:
#	180
#	11141
#	23998
#	37243
#	49897
#	63309
#	75422
#	89216
#	100230
#	112795
#	126228
#	139616
#	151570
#	165368
#	177716
#	189463
#	201349
#	215051
#	225851
#	239018
#	252369
#	264133
#	277380
#	289581
#	302916
#	315476
#
# Disc length: 4355 seconds
#
# Revision: 1
# Processed by: cddbd v1.5.2PL0 Copyright (c) Steve Scherf et al.
# Submitted via: CDex 1.51
#
DISCID=7511011a
DTITLE=Country Trail - CD 7
DYEAR=1900
DGENRE=Country
TTITLE0=Johnny Hicks - Hamburger Hop
TTITLE1=Jimmie Widener - I hear you knocking
TTITLE2=Dub Adams - Income Tax
TTITLE3=Chuck Wagon Gang - After the Sunrise
TTITLE4=Woody Guthrie - Dust caint kill me
TTITLE5=Bill Strength - Black Coffee Blues
TTITLE6=Ernest Phipps - Shine on me
TTITLE7=Hank Williams - Lonesome Whistel
TTITLE8=Georg Morgan - Room full of Roses
TTITLE9=Gene Autury - I´ll go Ridin´down
TTITLE10=Roy Rodgers - Cowboy night herd Song
TTITLE11=The Delmor Brothers - Brown´s ferry Blues
TTITLE12=Sons if Dixie - Don´t ever go Wrong
TTITLE13=Hank Williams - Honky Tonk
TTITLE14=Tennessee Ernie Ford - Shotgun Boogie
TTITLE15=Jackson Country Barn Owis - Bake that Chicken pie
TTITLE16=Jimmy Rodgers - My littel old Home
TTITLE17=Claude Casey - Pine State Honkey Tonk
TTITLE18=Curley Williams - Georgia Blues
TTITLE19=Jimmy Wakely - Mine all Mine
TTITLE20=Merle Travis - Cincinneti Lou
TTITLE21=Jimmy Rodgers - Somewhere down Below
TTITLE22=Leon Mc Auliffe - Take it away Len
TTITLE23=The Shelton Brothers - On the Old hoot Train
TTITLE24=Hank Penny - Now ain´t you glad Dear
TTITLE25=Gene Autry - Rhythem of the Range
EXTD=
EXTT0=
EXTT1=
EXTT2=
EXTT3=
EXTT4=
EXTT5=
EXTT6=
EXTT7=
EXTT8=
EXTT9=
EXTT10=
EXTT11=
EXTT12=
EXTT13=
EXTT14=
EXTT15=
EXTT16=
EXTT17=
EXTT18=
EXTT19=
EXTT20=
EXTT21=
EXTT22=
EXTT23=
EXTT24=
EXTT25=
PLAYORDER=
